<svg xmlns="http://www.w3.org/2000/svg" viewBox="0 0 320 240" font-family="Nunito, sans-serif">
  <rect width="320" height="240" fill="#fcf9f7"/>
  <g fill="#efe3da">
    <rect x="18" y="26" width="30" height="38" rx="3" transform="rotate(-8 33 45)"/>
    <rect x="32" y="22" width="30" height="38" rx="3"/>
    <rect x="46" y="26" width="30" height="38" rx="3" transform="rotate(8 61 45)"/>
  </g>
  <g stroke="#d7b8a3" stroke-width="2"><line x1="38" y1="32" x2="56" y2="32"/><line x1="38" y1="40" x2="56" y2="40"/><line x1="38" y1="48" x2="50" y2="48"/></g>
  <path d="M14 76 H90 L66 112 V134 L38 146 V112 Z" fill="#d7b8a3"/>
  <circle cx="52" cy="180" r="30" fill="#a4603f"/>
  <text x="52" y="186" text-anchor="middle" font-size="22" font-weight="700" fill="#fff">31</text>
  <text x="52" y="226" text-anchor="middle" font-size="12" fill="#7a6f68">studies 2022–24</text>
  <text x="112" y="30" font-size="13" font-weight="700" fill="#1f1b18">GenAI for code comprehension</text>
  <g font-size="12" fill="#3d3631">
    <text x="112" y="62">Explain software</text><rect x="112" y="68" width="189" height="14" rx="4" fill="#a4603f"/><text x="296" y="79" text-anchor="end" font-size="11" font-weight="700" fill="#fff">21</text>
    <text x="112" y="104">Enhance docs</text><rect x="112" y="110" width="45" height="14" rx="4" fill="#c98b6b"/><text x="163" y="121" font-size="11" font-weight="700" fill="#85482c">5</text>
    <text x="112" y="146">Enhance pedagogy</text><rect x="112" y="152" width="27" height="14" rx="4" fill="#3e7f7a"/><text x="145" y="163" font-size="11" font-weight="700" fill="#3e7f7a">3</text>
    <text x="112" y="188">Readability · Visualize</text><rect x="112" y="194" width="9" height="14" rx="3" fill="#7fb0ab"/><rect x="125" y="194" width="9" height="14" rx="3" fill="#7fb0ab"/><text x="140" y="205" font-size="11" font-weight="700" fill="#3e7f7a">1 · 1</text>
  </g>
</svg>
